<?xml version="1.0" encoding="UTF-8" standalone="no"?>
<!-- Generator: Adobe Illustrator 27.1.1, SVG Export Plug-In . SVG Version: 6.00 Build 0)  -->

<svg
   version="1.1"
   id="Layer_1"
   x="0px"
   y="0px"
   viewBox="0 0 450.6 732"
   style="enable-background:new 0 0 450.6 732;"
   xml:space="preserve"
   sodipodi:docname="favico.svg"
   inkscape:version="1.1.2 (b8e25be8, 2022-02-05)"
   xmlns:inkscape="http://www.inkscape.org/namespaces/inkscape"
   xmlns:sodipodi="http://sodipodi.sourceforge.net/DTD/sodipodi-0.dtd"
   xmlns="http://www.w3.org/2000/svg"
   xmlns:svg="http://www.w3.org/2000/svg"><defs
   id="defs1790" /><sodipodi:namedview
   id="namedview1788"
   pagecolor="#505050"
   bordercolor="#ffffff"
   borderopacity="1"
   inkscape:pageshadow="0"
   inkscape:pageopacity="0"
   inkscape:pagecheckerboard="1"
   showgrid="false"
   inkscape:zoom="0.85382514"
   inkscape:cx="225.456"
   inkscape:cy="366"
   inkscape:window-width="1296"
   inkscape:window-height="847"
   inkscape:window-x="0"
   inkscape:window-y="25"
   inkscape:window-maximized="0"
   inkscape:current-layer="Layer_1" />
<style
   type="text/css"
   id="style1775">
	.st0{fill-rule:evenodd;clip-rule:evenodd;fill:#A9B665;}
</style>
<g
   id="Capa_2"
   style="fill:#abe9b3">
	<g
   id="Capa_1-2"
   style="fill:#abe9b3">
		<g
   id="Capa_2-2"
   style="fill:#abe9b3">
			<g
   id="Capa_1-2-2"
   style="fill:#abe9b3">
				<path
   class="st0"
   d="M217.1,321.8h17.2v0.8h3v0.8l5.2,0.8v0.8h1.5v0.8h2.2v0.8h1.5v0.8h1.5l0.8,1.5h1.5l0.8,1.5h1.5l2.2,3h1.5      l0.8,1.5h0.8v1.5l4.5,3.8v1.5l2.2,1.5l0.8,3h0.8l1.5,4.5h0.8l0.8,4.5h0.8v2.2h0.8l0.8,18h-0.8v4.5h-0.8v2.2h-0.8v2.2h-0.8v2.2      h-0.8l-1.5,4.5h-0.8l-0.8,3l-2.2,1.5v1.5l-3,2.2v1.5l-1.5,0.8v0.8l-2.2,0.8l-3,3.8h-1.5l-0.8,1.5h-1.5l-0.8,1.5l-4.5,1.5v0.8      h-1.5v0.8h-2.2v0.8h-2.2v0.8h-3v0.8h-3.8v0.8c-4.8,1.4-19.7-1-22.5-2.2v-0.8h-1.5v-0.8h-2.2V411h-1.5v-0.8h-1.5l-0.8-1.5l-3-0.8      l-1.5-2.2h-1.5l-3-3.8l-5.2-4.5c-6.1-8.6-12.9-24.5-8.2-39l0.8-6c3.7-9.5,12.1-19.6,20.2-24.8l3-0.8V326l3-0.8v-0.8h2.2V324h1.5      v-0.8C212.6,322.3,215.4,323.2,217.1,321.8z"
   id="path1777"
   style="fill:#abe9b3" />
				<path
   class="st0"
   d="M445.1,321c0.2-9.6-10.2-33.4-12-40.5c-1.7,0.7-0.6-3.7-2.2-3V276h-0.8v-2.2h-0.8c-0.8-0.2-0.7-5.5-2.2-4.5      v-1.5h-0.8c0-1.4-0.7-3.4-2.2-3.8v-1.5h-0.8V261h-0.8v-1.5c-1.2,0.4-0.5-1-0.8-1.5c-1.7,0-2.6-4.1-3-5.2      c-1.2,0.6-1.1-1.8-1.5-2.2l-1.5-0.8c-0.6-0.2-0.1-3.9-1.5-3l-0.8-2.2l-1.5-0.8v-1.5l-2.2-1.5v-1.5l-1.5-0.8V237l-1.5-0.8      c-0.5-1.4-1.4-3.3-3-3.8c0.6-1.5-2-3-3-3.8c0.8-2.4-3.8-2.9-3-5.2l-6-5.2c1.1-1.7-3.9-4.3-4.5-5.2c-1.9,0.2-8.3-11.7-10.5-9.8      l-4.5-5.2c-1.5,0.8-3.7-2.9-4.5-3.8c-1.6,0.8-3-2.2-3.8-3c-1.7,0.8-2.2-1.4-3-2.2c-1.2-0.5-2.8-0.8-3-2.2h-1.5      c-0.7-0.9-0.5-1.9-2.2-1.5c-1.8-3.6-2.7-1-3.8-3.8c-1.1-0.6-3.6-0.3-3.8-2.2c-1.3,0.1-1.9-0.3-2.2-1.5c-1.3,0.1-1.9-0.3-2.2-1.5      c-0.4-0.3-3.8-0.3-3-1.5c-1.3,0.1-1.9-0.3-2.2-1.5c-2.6,0.4-0.4-1.1-3-0.8v-0.8h-1.5V171H331v-0.8h-1.5v-0.8H328v-0.8h-1.5V168      H325v-0.8h-1.5c0.6-1.6-3.7-0.6-3-2.2H319v-0.8h-2.2c0.6-1.6-3.7-0.6-3-2.2h-2.2v-0.8h-1.5v-0.8c-0.4-0.3-4.6-0.2-3.8-1.5h-2.2      v-0.8h-1.5c0.8-1.9-5.3-0.4-4.5-2.2h-2.2v-0.8h-2.2v-0.8h-2.2v-0.8c-0.3-0.4-6.3,0-5.2-1.5c-0.4-0.3-7,0-6-1.5l-20.2-3.8      L254.6,0h-57.8c-1.1,5.4,0.4,20.5-1.5,24c-0.3,40.7-3.2,81.8-3.8,123c-12.5,1.2-25.4,5.1-34.5,8.2c-0.5,0-2.8-0.5-2.2,0.8      c-0.5,0-2.8-0.5-2.2,0.8h-2.2c0.3,1.2-0.9,0.6-1.5,0.8c0.9,1.2-4.1,1.2-4.5,1.5c0.4,1.5-0.9,0.4-1.5,0.8      c0.6,1.5-1.7,0.4-2.2,0.8c0.4,1.5-0.9,0.4-1.5,0.8c0.6,1.5-1.7,0.4-2.2,0.8c0.7,1.7-3.7,0.6-3,2.2c-0.4,0.5-2.9-0.8-2.2,0.8      l-4.5,1.5c0.4,1.5-0.9,0.4-1.5,0.8c0.4,1.5-0.9,0.4-1.5,0.8c0.4,1.5-0.9,0.4-1.5,0.8c0.4,1.5-0.9,0.4-1.5,0.8      c0.4,1.5-0.9,0.4-1.5,0.8c0.4,1.5-0.9,0.4-1.5,0.8c0.4,1.5-0.9,0.4-1.5,0.8c0,1.7-4.1,2.6-5.2,3c-0.1,1.8-2.6,1.9-3.8,2.2      c-0.1,1.8-2.6,1.9-3.8,2.2c0.6,1.1-1.8,1.1-2.2,1.5l-0.8,1.5c-2.5-0.5-1.3,2-3.8,1.5c-0.7,1.4-1.4,2.5-3,2.2      c-0.5,1.2-1,1.8-2.2,1.5c-0.7,1.4-1.4,2.5-3,2.2c-0.9,1.9-2.5,3.2-4.5,3.8c-0.5,1.2-1,1.7-2.2,1.5c-1.3,0.5-2.6,4.9-4.5,3.8      c-1.6,1.2-4.4,6.3-6.8,6c-5.7,6.2-12.8,14.1-18.7,19.5c0.8,1.6-2.2,3-3,3.8c0.7,1.6-1.4,2.3-2.2,3c0.7,1.6-1.4,2.3-2.2,3      c0.7,1.6-1.4,2.3-2.2,3c0.5,1.5-0.6,1.7-1.5,2.2c-0.3,0.6-0.5,2.7-1.5,2.2c0.7,1.6-1.4,2.3-2.2,3c-0.6,1.3-0.4,3.6-2.2,3.8      l-0.8,2.2h-0.8v1.5h-0.8v1.5c-1.8,0-2.5,4.1-3,5.2c-0.9,0.5-1.9,0.8-1.5,2.2h-0.8v1.5c-1.5-0.4,0,1.9-1.5,1.5      c0.3,2.5-1.1,0.5-0.8,3c-1.5-0.4,0,1.9-1.5,1.5c0.3,2.5-1.1,0.5-0.8,3c-1.5-0.4,0,1.9-1.5,1.5v1.5c-1.2-0.9-1.8,4.2-2.2,4.5      c-1.2-0.5-0.7,1.7-0.8,2.2c-1.5-0.4,0,1.9-1.5,1.5v2.2h-0.8v1.5h-0.8v2.2h-0.8v1.5h-0.8L13,295c-1.2-0.5-0.7,1.7-0.8,2.2      c-1.2-0.5-0.7,1.7-0.8,2.2c-1.2-0.5-0.7,1.7-0.8,2.2c-1.2-0.5-0.7,1.7-0.8,2.2c-1.5-1-1.1,5.7-1.5,6c-1.2-0.5-0.7,1.7-0.8,2.2      c-1.6-1.1-1,6.5-1.5,6.8c-1.3-0.7-0.6,2.5-0.8,3c-1.5-0.8-0.5,3.3-0.8,3.8c-1.5-0.8-0.5,3.3-0.8,3.8c-1.6-1-0.4,4.9-0.8,5.2      C1,335.9,1.7,352.9,1,357c-2.8,14,0.8,31.3,1.5,45c0.5,3.5,7.3,32.1,7.5,32.2c1.2-1,2,7.2,2.2,7.5c1.4-0.5,0.5,1,0.8,1.5      c1.2-0.8,1.2,4.1,1.5,4.5c1.6-0.5-0.1,2,1.5,1.5l0.8,4.5c1.2-0.7,1.2,2.5,1.5,3c1.2-0.8,1.2,3.3,1.5,3.8c1-0.8,1.9,4.1,2.2,4.5      c1.3-0.5,0.5,1,0.8,1.5c1.3-0.5,0.5,1,0.8,1.5c1.3-0.5,0.5,1,0.8,1.5c1.3-0.5,0.5,1,0.8,1.5c1.3-0.6,0.5,1,0.8,1.5      c1.6-0.5-0.1,2,1.5,1.5c0.1,0.5-0.5,1.9,0.8,1.5c0.1,0.5-0.5,1.9,0.8,1.5v1.5l1.5,0.8c1,0.7,0.8,5.6,3,5.2v1.5l1.5,0.8      c-0.2,3.2,2,0.7,2.2,5.2c1.3,0.4,1.7,1,1.5,2.2c0.9,0.8,2.8,1.5,2.2,3c1.3,0.4,1.7,1,1.5,2.2c0.9,0.8,2.8,1.5,2.2,3      c0.9,0.8,2.8,1.5,2.2,3c0.8,0.9,3.8,2.2,3,3.8c0.7,1,4.7,2.9,3.8,4.5c3.2,4,24,21.4,21,24c-1-0.7-0.8,1.1-0.8,1.5l-1.5,0.8      l-0.8,3l-1.5,0.8v1.5l-1.5,0.8l-0.8,2.2H67l-0.8,3c-1-0.6-1.2,1.8-1.5,2.2l-1.5,0.8v1.5c-1.5,0-2,2.6-2.2,3.8      c-1.2,0-2.1,2-2.2,3c-1.2-0.7-1.2,2.6-1.5,3l-1.5,0.8v1.5l-1.5,0.8v1.5c-2.5,0.3-1.3,4.2-3.8,4.5v1.5L49,577l-0.8,3      c-2.6,0.6-0.4,2.2-3,3c-0.2,0.2-0.5,3.1-1.5,2.2l-0.8,3h-0.8l-0.8,2.2l-1.5,0.8v1.5l-1.5,0.8l-0.8,3c-1.2-0.1-2.1,2-2.2,3      c-0.9-0.8-0.8,1.2-0.8,1.5c-2.6,0.9-2.5,5.5-5.2,6.8l-0.8,2.2l2.2,1.5v0.8c1.6-0.9,2.3,1.5,3,2.2c1.6-0.8,3,2.2,3.8,3      c2.2-0.8,2.2,3,4.5,2.2c0.5,0.9,1.5,2.8,3,2.2l1.5,2.2c1.6-0.9,2.3,1.5,3,2.2c2.5-0.5,1.3,2,3.8,1.5l1.5,2.2      c1.5-0.4,1.8,0.5,2.2,1.5l2.2,0.8v0.8l3,0.8l0.8,1.5l3,0.8l0.8,1.5c1.1,0.5,5.3,1.3,5.2,3c0.3,0.2,5.4,1.1,4.5,2.2H78v0.8h1.5      c-0.8,1.7,5.3,1.3,4.5,3h2.2v0.8c0.4,0.2,3.8,0.3,3,1.5h1.5v0.8h2.2c-0.7,1.7,3.7,0.6,3,2.2l3.8,0.8c-0.5,1,1.7,0.8,2.2,0.8v0.8      h1.5c-0.5,1,1.7,0.8,2.2,0.8v0.8c8.3,3.1,7.2,1.9,11.2-5.2c-0.3-1.4,0.3-1.9,1.5-2.2l0.8-3c1.6,0.4-0.1-1.9,1.5-1.5      c0-0.5-0.3-2,0.8-1.5v-1.5h0.8V639h0.8v-1.5c1.7,1.1,6.2-12.3,6.8-12.8c1.6-0.4,2-2.4,2.2-3.8c1.2,0,0.6-0.6,0.8-1.5      c1.6,0.4-0.1-1.9,1.5-1.5c0.1-0.5-0.3-2,0.8-1.5V615c1.2,0,0.6-0.6,0.8-1.5l1.5-0.8v-1.5c1.2,0,0.6-0.6,0.8-1.5      c1.6,0.4-0.1-1.9,1.5-1.5c0.1-0.6-0.3-2,0.8-1.5v-1.5c1.1,0,0.6-0.6,0.8-1.5c1.1,0,0.6-0.6,0.8-1.5c1.3-0.5,1.7-0.8,1.5-2.2      c1.1,0.2,0.7-0.8,0.8-1.5c1.1,0.2,0.7-0.8,0.8-1.5c1.6,0.4-0.1-1.9,1.5-1.5c0.1-1.2-0.4-1.5,0.8-1.5l1.5-4.5      c1.3-0.6,1.7-0.7,1.5-2.2c1.6,0.4-0.1-1.9,1.5-1.5c0.1-1.1-0.4-1.6,0.8-1.5c0.4-1.5,1.1-2.2,1.5-3.8c6.6,1.5,13.3,4.6,20.2,6      c-0.4,19.5-1.7,38.9-1.5,57.8c-1.8,8.8-1.1,30.2-1.5,40.5c-2-1.2-0.1,19.3-0.8,19.5c-1.8-1-0.2,7.9-0.7,8.2      c1,4.7-3.2,14.5,1.5,14.2v0.8c4.9-0.5,11,1.2,15.8,0.8c-1.3,1.7,7.4,0.3,7.5,0.8c-1.3,1.7,7.4,0.3,7.5,0.8      c-1.3,2.3,17.1,0,15.8,2.2c6.2-0.1,29.7,0.7,33-1.5c0.4-0.6,7.8,1.1,6.7-0.8c0.5-0.8,7.7,1.2,6.8-0.8c6,0,10.6-1.2,17.2-2.2      l-5.2-140.2l20.2-6c0.4,1.2,0.8,2.8,2.2,3c0.4,0.6-0.6,1.8,0.8,1.5l1.5,4.5c1.2-0.4,0.6,0.9,0.8,1.5c1.6-0.5-0.1,2,1.5,1.5      c-0.3,2.5,1.1,0.5,0.8,3c2.5,0.2,1.2,3.9,3,3.8c0.3,0.6-0.5,1.9,0.8,1.5c-0.3,2.5,1.1,0.5,0.8,3c1.2-0.4,0.6,0.9,0.8,1.5      c1.2-0.4,0.6,0.9,0.8,1.5c1,0.1,1.7,1,1.6,2l0,0c0,0.1,0,0.2-0.1,0.3c1.6-0.5-0.1,2,1.5,1.5c0.3,0.5-0.5,1.9,0.8,1.5      c0.3,0.5-0.5,1.9,0.8,1.5c0.3,0.5-0.5,2,0.8,1.5c0.3,0.5-0.5,2,0.8,1.5c0.3,0.5-0.5,2,0.8,1.5c-0.3,1,0.3,2,1.3,2.2l0,0h0.2      c0.5,0.3,0.2,3.8,1.5,3c0.3,0.4-0.5,2,0.8,1.5c0.2,0.4-0.5,2,0.8,1.5c0.2,0.4-0.5,2,0.8,1.5c-0.3,2.5,1.1,0.5,0.8,3      c2.5,0.5,0.6,2.4,2.2,2.2c0.2,0.4-0.5,2,0.8,1.5c0.2,0.4-0.5,2,0.8,1.5c0.2,0.4-0.5,2,0.8,1.5c0.2,0.4-0.5,2,0.8,1.5      c0.2,0.4-0.5,2,0.8,1.5c-0.2,1,0.3,2,1.3,2.2l0,0h0.2c0.2,0.3-0.5,2,0.8,1.5c0.2,0.3-0.5,2,0.8,1.5c0.2,0.3-0.5,2,0.8,1.5      c0.2,0.3-0.4,2.1,0.8,1.5c0.2,0.3-0.4,2.1,0.8,1.5c1.1,3.1,2.6,4.9,3.8,7.5c0.5-0.7,3.6-0.1,3-1.5h2.2c-0.5-1.3,1.7-0.5,2.2-0.8      c-0.4-1.2,0.9-0.6,1.5-0.8c-0.5-1.3,1.7-0.5,2.2-0.8c-0.7-1.2,2.5-1.2,3-1.5c-0.5-1.3,1.7-0.5,2.2-0.8c-0.8-1.2,3.3-1.2,3.8-1.5      c-0.4-1.2,0.9-0.6,1.5-0.8c-0.8-1.2,3.3-1.2,3.8-1.5c-0.8-1.1,4.1-1.9,4.5-2.2c-0.4-1.2,0.9-0.6,1.5-0.8c-0.5-1.6,2,0.1,1.5-1.5      c0.5-0.3,1.9,0.5,1.5-0.8c2.5,0.3,0.5-1.1,3-0.8c-0.5-1.6,2,0.1,1.5-1.5c0.5-0.3,1.9,0.5,1.5-0.8c2.5,0.3,0.5-1.1,3-0.8      c0.4-2.5,4.1-1.3,4.5-3.8c4.3-0.4,2.6-2.6,5.2-2.2c0.1-1,1-1.7,1.9-1.6l0,0c0.1,0,0.2,0,0.3,0.1c0.1-1,1-1.7,1.9-1.6l0,0      c0.1,0,0.2,0,0.3,0.1c0.1-1,1-1.7,1.9-1.6l0,0c0.1,0,0.2,0,0.3,0.1c0.5-1.1,1.6-2.7,3-2.2c1-2.8,2.1-0.1,3.8-3.8      c1,0.2,2-0.4,2.2-1.3l0,0v0.2c1.4,0.5,2.4-1.2,3-2.2c1.5,0.7,3-2.1,3.8-3c2.4,0.8,2.9-3.8,5.2-3l2.2-3c1.9,0-0.3-1.2-0.8-1.5      c0.2-1-0.3-1.9-1.3-2.2h-0.2c-0.5-1.3-0.5-3.6-2.2-3.8c0.4-2.6-1.9-0.9-2.2-5.2c-2.7-0.8-0.4-2.2-3-3c-0.4-0.6,0.5-1.8-0.8-1.5      c-0.6-0.5-0.3-2.8-1.5-2.2c0.4-2.5-1.9-1.4-2.2-4.5c-1.2,0.7-1.2-2.5-1.5-3c-1.4-0.2-2-1.9-2.2-3c-1.2,0.7-1.2-2.5-1.5-3      c-1-0.1-1.7-1-1.6-1.9c0,0,0,0,0-0.1s0-0.2,0-0.3c-1-0.1-1.7-1-1.6-1.9l0,0c0-0.1,0-0.2,0.1-0.3c-1.7-0.1-2-2.5-2.2-3.8      c-1-0.1-1.7-1-1.6-1.9l0,0c0-0.1,0-0.2,0.1-0.3c-1-0.1-1.7-1-1.6-1.9l0,0c0-0.1,0-0.2,0.1-0.3c-1.2,0.4-0.6-0.9-0.8-1.5      c-1-0.1-1.7-1-1.6-1.9l0,0c0-0.1,0-0.2,0.1-0.3c-1-0.1-1.7-1-1.6-1.9l0,0c0-0.1,0-0.2,0.1-0.3c-1.6-0.1-2-2.5-2.2-3.8      c-1.4-0.2-2-1.9-2.2-3c-1.2,0.7-1.2-2.5-1.5-3c-1.6,0.1-0.8-2.7-3-3c-0.6-2.9-7.4-9.6-4.5-10.5c0.5-0.8,1.6-3,3-2.2      c0.2-1.5,3.5-3.6,4.5-4.5c1.9-2.5,22.7-24.1,21.8-26.2c0.8-0.3,2.9-1.8,2.2-3c0.8-0.3,2.9-1.8,2.2-3l1.5-0.8      c0,0,0.6-3.1,1.5-2.2c-0.5-1,0.5-2.1,1.5-2.2c-0.5-0.9,0.5-2.1,1.5-2.2v-1.5l1.5-0.8l0.8-2.2c1,0.6,0.7-1,0.8-1.5      c1.6,0.5-0.1-2,1.5-1.5v-1.5l1.5-0.8V477h0.8v-1.5h0.8V474h0.8v-1.5l1.5-0.8c0.1,0,0.5-4,1.5-3l1.5-4.5c1.2,0.7,0.6-1.8,0.8-2.2      c1.6,0.7,0.6-3.7,2.2-3v-1.5h0.8c0-0.2-0.4-3.1,0.8-2.2c0.2-0.1,0.4-4,1.5-3c0.2,0,0.2-5.7,1.5-4.5v-1.5      c1.4,0.8,1.1-4.1,1.5-4.5C449.2,416.4,456,357.4,445.1,321z M407.6,374.2c0.3,4.9-1.1,11.6-0.8,16.5c-2.1-0.9,0.6,6.1-1.5,5.2      v5.2c-1.4-0.8-0.5,3.3-0.8,3.8c-1.4-0.8-0.5,3.3-0.8,3.8c-1.4-0.7-0.5,2.5-0.8,3c-1.9-0.7,0.4,3.7-1.5,3c-0.7,0.3,1,3.8-0.8,3      c-0.7,0.3,1,3.8-0.8,3c-0.1,0.5,0.5,2.8-0.8,2.2v2.2c-1.4-0.6-0.5,1.8-0.8,2.2c-1.2-0.8-1.2,4.1-1.5,4.5c-1.4-0.5-0.5,1-0.8,1.5      c-1.4-0.6-0.5,1.8-0.8,2.2c-1.4-0.5-0.5,1-0.8,1.5c-1.4-0.6-0.5,1.8-0.8,2.2c-1.2-0.7-1.2,2.5-1.5,3c-1.4-0.5-0.5,1-0.8,1.5      c-1.4-0.6-0.5,1.8-0.8,2.2c-1.2-0.7-1.2,2.5-1.5,3c-1.4-0.5-0.5,1-0.8,1.5c-1.5,0.4-1.5,1-1.5,2.2c-1.4-0.5-0.5,1-0.8,1.5      c-1.4-0.5-0.5,1-0.8,1.5c-1.4-0.5-0.5,1-0.8,1.5c-2.5,0.4-1.3,4.1-3.8,4.5c-0.4,4.3-2.6,2.6-2.2,5.2c-0.9,0.9-2.9,1.4-2.2,3      c-1.4,0.4-1.6,1-1.5,2.2c-0.9,0.9-2.9,1.4-2.2,3c-0.9,0.9-2.9,1.4-2.2,3c-0.8,1-3.8,2-3,3.8c-0.6,1.2-5.6,3.5-4.5,5.2l-10.5,11      c-1.5-0.1-6.3,9.2-8.3,7.5c-1.3,0.2-2.6,5-4.5,3.8c-0.7,1-2.1,3.6-3.8,3c-1.9,3.7-2.7,0.8-4.5,4.5c-1.4-0.6-1.8,0.7-2.2,1.5      c-0.6,0.2-2.7,0.6-2.2,1.5c-1.4-0.6-1.8,0.7-2.2,1.5l-2.2,0.8v0.8l-3,0.8l-0.8,1.5c-0.7,0.1-1.8-0.3-1.5,0.8      c-2.5-0.3-0.6,1.1-3,0.8v0.8h-1.5c-0.2,1.5-2.5,2.1-3.8,2.2c0.4,1.5-2,0-1.5,1.5c-0.4,0.1-5.3,1.2-4.5,2.2h-2.2      c0.7,1.7-3.7,0.6-3,2.2h-2.2v0.8c-0.7,0-1.8-0.2-1.5,0.8h-2.2c0.4,1.5-2,0-1.5,1.5c-16.7,4.4-39.4,11.6-54.8,10.5      c-6.5,1.7-19.9,0.6-26.2,0c0-1.2-14.9-0.1-13.5-2.2c0-1.1-9.5,0.6-8.2-1.5c-0.2-0.6-4.7,1-3.8-0.8c0-1.1-9.6-0.3-8.2-2.2h-2.2      v-0.8c0-1-8.8-0.4-7.5-2.2h-1.5v-0.8l-4.5-0.8c0.5-1.4-1-0.5-1.5-0.8c0.6-1.4-1.8-0.5-2.2-0.8c0.5-1.4-1-0.5-1.5-0.8      c0.6-1.4-1.8-0.5-2.2-0.8c0.7-1-4.1-2-4.5-2.2c0.5-1.4-1-0.5-1.5-0.8c0.5-1.4-1-0.5-1.5-0.8c0.5-1.6-2,0.1-1.5-1.5h-1.5      c0.6-1.4-1-0.5-1.5-0.8c0.5-1.6-2,0.1-1.5-1.5h-1.5c0.6-1.4-1-0.5-1.5-0.8c0.6-1.4-1.1-0.5-1.5-0.8c-0.4-2.5-4.1-1.3-4.5-3.8      c-1.6-0.4-4-1-4.5-3h-1.5V518l-2.2-0.8c-0.4-1.2-1.1-1.7-2.2-1.5c-0.1-1.5-2-1.9-3-2.2c-0.9-0.9-1.4-2.9-3-2.2      c-1.1-0.7-2-3.9-3.8-3c-1.3-0.4-3.4-5.7-5.2-4.5l-8.2-9c-0.7-0.7-11-9.2-9.8-10.5c-0.7-0.8-4.6-2.8-3.8-4.5L81,479      c0.5-1-1.1-1.1-1.5-1.5c0.8-1.6-1.4-2.3-2.2-3c-0.5-1.1-0.8-2.8-2.2-3c0.7-1.4-0.7-1.8-1.5-2.2c0.7-1.4-0.7-1.8-1.5-2.2      c0.7-1.4-0.7-1.8-1.5-2.2l-0.8-2.2H69l-0.8-3c-2.4-0.4-1.3-4.1-3.8-4.5c-0.2-0.4-1.1-5.4-2.2-4.5v-1.5h-0.8v-1.5h-0.8      c-0.2-0.4-1.1-5.4-2.2-4.5V441c-1.7,0.7-0.6-3.7-2.2-3v-2.2h-0.8v-1.5h-0.8c-0.2-0.4-0.2-5.4-1.5-4.5v-2.2h-0.8v-2.2h-0.8V423      h-0.8v-2.2h-0.8c-0.1-0.4,0.6-3.8-0.8-3v-2.2h-0.8c-0.1-0.4,0.6-3.8-0.8-3c-0.2-0.4,0.7-4.7-0.8-3.8c-0.2-0.4,0.7-4.7-0.8-3.8      c-0.2-0.4,0.7-4.7-0.8-3.8c0.1-3.6-1.1-8.2-0.8-12c-1.6-6.5-2.2-22.8-1.5-31.5c1.3,1.3,1.3-15.6,1.5-15.8      c1.4,0.9,0.5-4.1,0.8-4.5c1.4,0.9,0.5-4.1,0.8-4.5c11.2-53.6,47.1-102.2,101.2-129h2.2v-0.8h1.5v-0.8c0.4-0.2,3.8-0.4,3-1.5h2.2      V200h1.5c-0.5-1.1,1.7-0.7,2.2-0.8v-0.8h1.5c-0.9-1.4,4.1-1.1,4.5-1.5c19.3-8.3,58.8-13.4,84-8.2c0.3,0.8,6.3-1.2,5.2,0.8      c0.3,0.7,5.5-1.1,4.5,0.8c0.4,0.5,2.9-0.8,2.2,0.8c0.3,0.7,4.7-1,3.8,0.8c0.2,0.9,7.9-0.4,6.8,1.5c0.2,0.8,6.3-0.3,5.2,1.5      c0.4,0.5,3-0.8,2.2,0.8c0.4,0.5,3-0.8,2.2,0.8c0.4,0.5,3-0.8,2.2,0.8l4.5,0.8c-0.5,1.5,1,0.4,1.5,0.8c-0.8,1.8,5.3,0.4,4.5,2.2      c0.2,0.9,3.9-0.1,3,1.5c0.4,0.5,3-0.8,2.2,0.8c0.1,1,5.5,0.6,4.5,2.2c0.5,0.2,1.9-0.5,1.5,0.8c0.5,0.2,1.9-0.5,1.5,0.8      c0.5,0.2,1.9-0.6,1.5,0.8c0.5,0.2,1.9-0.6,1.5,0.8c2.5-0.3,0.5,1.1,3,0.8c0,1.8,4,2.6,5.2,3c-0.6,1.1,1.8,1.1,2.2,1.5l0.8,1.5      c0.2,0.8,3.9-0.1,3,1.5c1.2,0.2,2.6,0.8,3,2.2c1.3-0.4,2.5,1.1,3,2.2c1.3-0.4,2.5,1.1,3,2.2c1.3-0.4,2.5,1.1,3,2.2h1.5      c0.4,0.5,0.6,1.9,1.5,1.5c0.4,1.2,1,1.7,2.2,1.5c1.3,0.5,2.7,4.8,4.5,3.8l12,12.8c0.8,0.9,5.4,3.5,4.5,5.2      c1.1,0.8,4.4,2.8,3.8,4.5c1.2,0.6,3.4,2.2,3,3.8c1.1,0.6,2.6,1.4,2.2,3c3.6,1.7,1,2.8,3.8,3.8l0.8,2.2h0.8      c-0.6,1.5,0.6,1.7,1.5,2.2l0.8,2.2h0.8l1.5,4.5c1.8,0,2.5,4.1,3,5.2c1.5,0.2,2.1,2.5,2.2,3.8c1.7-0.8,1.3,5.3,3,4.5v2.2h0.8      c0.1,0.7-0.3,1.8,0.8,1.5l0.8,3c1.1-0.5,0.7,1.7,0.8,2.2c1.6-0.7,0.6,3.7,2.2,3c0.2,0.4,0.2,5.4,1.5,4.5      c0.1,0.7-0.3,1.8,0.8,1.5v2.2h0.8v2.2c1.1-0.5,0.7,1.7,0.8,2.2c1.3-0.7,0.6,2.5,0.8,3c1.1-0.5,0.7,1.7,0.8,2.2      c1.3-0.7,0.6,2.5,0.8,3c1.9-0.7-0.4,3.7,1.5,3C405.4,340,408.4,357.9,407.6,374.2z"
   id="path1779"
   style="fill:#abe9b3" />
				<path
   class="st0"
   d="M371.6,354v-6h-0.8v-5.2H370V339h-0.8v-3.8h-0.8l-0.8-6h-0.8v-3H366V324h-0.8v-2.2h-0.8v-2.2h-0.8l-0.8-4.5      H362v-1.5h-0.8v-2.2h-0.8l-1.5-4.5h-0.8v-1.5h-0.8v-1.5h-0.8v-1.5h-0.8v-1.5h-0.8v-1.5h-0.8v-1.5h-0.8v-1.5l-1.5-0.8l-0.8-3      h-0.8l-0.8-2.2l-1.5-0.8V288h-0.8l-0.8-2.2l-1.5-0.8v-1.5l-1.5-0.8l-0.8-2.2l-3-2.2v-1.5L335,273v-1.5l-4.5-3.8l-6.8-7.5h-1.5      l-4.5-5.2h-1.5l-2.2-3h-1.5l-1.5-2.2h-1.5l-1.5-2.2h-1.5l-0.8-1.5h-1.5l-0.8-1.5l-2.2-0.8V243l-3-0.8      c-20.9-13.2-47-20.7-81.8-20.2c-2.3,2-12,0.4-15.8,1.5c-3.6,1-8.6,1.9-12,3h-3l-18,6v0.8h-1.5v0.8h-2.2v0.8l-4.5,1.5v0.8h-1.5      v0.8h-1.5v0.8l-4.5,1.5l-0.8,1.5l-3,0.8l-0.8,1.5h-1.5v0.8h-1.5l-1.5,2.2h-1.5v0.8l-2.2,0.8l-0.8,1.5h-1.5l-0.8,1.5h-0.8      l-0.8,1.5h-1.5l-2.2,3h-1.5l-4.5,5.2h-1.5l-5.2,6l-3,2.2v1.5l-5.2,4.5v1.5l-1.5,0.8v0.8l-2.2,1.5v1.5l-2.2,1.5l-0.8,2.2      l-1.5,0.8v1.5l-1.5,0.8l-0.8,2.2h-0.8l-0.8,3l-1.5,0.8l-0.8,3l-1.5,0.8v1.5h-0.8v1.5h-0.8v1.5h-0.8v1.5h-0.8v1.5h-0.8v1.5h-0.8      l-1.5,4.5h-0.8v2.2H86v1.5h-0.8l-0.8,4.5h-0.8v2.2h-0.8v2.2H82v2.2h-0.8v3h-0.8l-0.8,6h-0.8l-0.8,7.5h-0.8l-0.8,13.5      c-0.8,2.9-1.8,20.1-0.8,24h0.8v7.5h0.8v5.2H78v4.5h0.8v3.8h0.8v3h0.8l0.8,6H82v2.2h0.8v2.2h0.8v2.2h0.8l0.8,4.5H86v1.5h0.8v2.2      h0.8l1.5,4.5h0.8v1.5h0.8v1.5h0.8v1.5h0.8v1.5h0.8v1.5h0.8v1.5h0.8v1.5h0.8l0.8,2.2l1.5,0.8l0.8,3h0.8l0.8,2.2l1.5,0.8v1.5      l2.2,1.5v1.5l2.2,1.5v1.5l2.2,1.5v1.5l5.2,4.5v1.5l4.5,3.8l7.5,8.2h1.5l3.8,4.5h1.5l2.2,3h1.5l1.5,2.2h1.5l0.8,1.5h1.5l1.5,2.2      h1.5l0.8,1.5l3,0.8l0.8,1.5l4.5,1.5l0.8,1.5l3,0.8v0.8h1.5v0.8l4.5,1.5v0.8h2.2v0.8h1.5v0.8h2.2v0.8h1.5v0.8l4.5,0.8v0.8h2.2      v0.8h2.2v0.8h2.2v0.8h3v0.8h3v0.8h3v0.8h3.8v0.8h3.8v0.8l12.8,0.8v0.8h25.5v-0.8h7.5V513h5.2v-0.8h4.5v-0.8l6.8-0.8V510h3v-0.8      l5.2-0.8v-0.8h2.2V507l4.5-0.8v-0.8h1.5v-0.8h2.2V504h1.5v-0.8l3.8-0.8v-0.8l4.5-1.5v-0.8h1.5v-0.8h1.5V498l4.5-1.5l0.8-1.5      l3-0.8l0.8-1.5h1.5l0.8-1.5h1.5v-0.8l2.2-0.8l0.8-1.5h1.5l1.5-2.2h1.5l2.2-3h1.5l2.2-3h1.5l8.2-9l7.5-6.8v-1.5l4.5-3.8v-1.5      l2.2-1.5l0.8-2.2l1.5-0.8v-1.5l1.5-0.8V449l2.2-1.5l0.8-3l1.5-0.8l0.8-2.2h0.8V440h0.8v-1.5h0.8V437h0.8v-1.5h0.8V434h0.8v-1.5      h0.8V431h0.8v-1.5h0.8l1.5-4.5h0.8v-2h0.8v-1.5h0.8l0.8-4.5c5.5-13.9,8.2-28.6,8.2-43.5V354H371.6z M326.6,402.8l-0.8,4.5      c-7.3,16.6-18.4,32.8-32.2,42.8l-3,3.8h-1.5l-0.8,1.5h-1.5l-1.5,2.2h-1.5l-0.8,1.5h-1.5l-0.8,1.5l-4.5,1.5l-0.8,1.5h-2.2      l-0.8,1.5h-1.5v0.8l-22.5,7.5h-4.5v0.8h-5.2v0.8h-14.2c-16.7,0-27.6-2.5-39-7.5h-2.2v-0.8l-4.5-1.5v-0.8h-1.5v-0.8h-1.5v-0.8      l-4.5-1.5v-0.8l-2.2-0.8l-0.8-1.5h-1.5v-0.8l-2.2-0.8l-0.8-1.5h-1.5l-0.8-1.5l-2.2-0.8l-3.8-4.5H154l-6.8-7.5l-4.5-3.8v-1.5      l-3-2.2V432l-2.2-1.5l-0.8-2.2l-1.5-0.8l-0.8-3l-1.5-0.8l-0.8-2.2h-0.8l-1.5-4.5H129v-1.5h-0.8V414h-0.8l-1.5-4.5h-0.8v-2.2      h-0.8v-1.5h-0.8v-2.2h-0.8v-2.2h-0.8v-3h-0.8v-3h-0.8v-3h-0.8v-4.5h-0.8v-4.5h-0.8v-9.8h-0.8v-11.2h0.8l0.8-13.5h0.8v-4.5h0.8      l0.8-6h0.8V336h0.8v-2.2h0.8v-2.2h0.8l0.8-4.5h0.8l1.5-4.5h0.8V321h0.8l1.5-4.5l1.5-0.8l0.8-3h0.8l0.8-2.2l1.5-0.8v-1.5l2.2-1.5      v-1.5l2.2-1.5v-1.5l5.2-4.5v-1.5l3-2.2l6-6.8h1.5l2.2-3h1.5l1.5-2.2h1.5l1.5-2.2h1.5l0.8-1.5l3-0.8l0.8-1.5l3-0.8l0.8-1.5      l6.8-2.2v-0.8l3-0.8v-0.8h2.2v-0.8h1.5v-0.8h2.2V267h2.2v-0.8l5.2-0.8v-0.8l7.5-0.8V263c3.2-1,10.7,0.2,12.8-1.5      c8.1,0,16.9-0.3,23.2,1.5h5.2l18.8,5.2v0.8h1.5v0.8h2.2v0.8l4.5,1.5v0.8h1.5v0.8l3,0.8l0.8,1.5l3,0.8l0.8,1.5l3,0.8l0.8,1.5      l2.2,0.8l1.5,2.2h1.5l3,3.8h1.5l3,3.8l7.5,6.8v1.5l3.8,3l0.8,2.2l1.5,0.8v1.5l2.2,1.5v1.5l1.5,0.8l0.8,2.2h0.8l1.5,4.5l1.5,0.8      l2.2,6.8h0.8l0.8,3h0.8v2.2C333.8,349.8,334.9,381.5,326.6,402.8z"
   id="path1781"
   style="fill:#abe9b3" />
			</g>
		</g>
	</g>
</g>
<path
   style="fill:#a0a0a0;stroke:none;stroke-width:1.1712"
   d="m 207.888,730.08802 c -5.79744,-0.54988 -12.91248,-1.21272 -15.8112,-1.47298 -11.21259,-1.00667 -19.67212,-2.18666 -20.78269,-2.89889 -0.76176,-0.48854 -0.60603,-15.59762 0.4543,-44.07775 0.88735,-23.83392 1.73968,-55.11658 1.89408,-69.51702 l 0.28071,-26.18262 -9.78059,-3.0334 c -9.53701,-2.95785 -9.8141,-2.97765 -11.1264,-0.79432 -4.34686,7.23203 -12.53132,22.0892 -19.66462,35.69696 -1.51954,2.89872 -3.02631,5.53392 -3.34839,5.856 -0.32208,0.32208 -3.2203,5.856 -6.44048,12.2976 -3.22019,6.4416 -6.14882,11.97552 -6.5081,12.2976 -0.35926,0.32208 -1.34602,2.29848 -2.1928,4.392 -1.84053,4.5504 -4.98453,4.96098 -11.21062,1.464 -2.29375,-1.28832 -4.684409,-2.3424 -5.312583,-2.3424 -1.706022,0 -30.932344,-14.41399 -31.385017,-15.47863 -0.21472,-0.50499 -1.13704,-0.91817 -2.0496,-0.91817 -0.91256,0 -1.6592,-0.52704 -1.6592,-1.1712 0,-0.64416 -0.511632,-1.1712 -1.136959,-1.1712 -1.003731,0 -11.390448,-6.61862 -12.917441,-8.23124 -0.32208,-0.34014 -4.646173,-3.64565 -9.609095,-7.34559 -4.962922,-3.69993 -9.268401,-7.12342 -9.567732,-7.60774 -0.299331,-0.48433 1.521322,-3.88574 4.045895,-7.55869 2.524572,-3.67294 4.590132,-6.92113 4.590132,-7.21818 0,-0.29706 2.37168,-4.0043 5.2704,-8.23831 2.89872,-4.23402 5.2704,-8.17621 5.2704,-8.76043 0,-0.58423 0.423074,-1.2379 0.940163,-1.45262 0.517091,-0.21472 2.992737,-3.81616 5.501437,-8.0032 2.5087,-4.18704 4.984346,-7.78848 5.501437,-8.0032 0.517089,-0.21472 0.940163,-1.09939 0.940163,-1.96594 0,-0.86656 0.678525,-2.272 1.507835,-3.1232 0.829307,-0.85122 2.777888,-3.65582 4.330175,-6.23246 1.552289,-2.57664 3.113684,-4.94832 3.469767,-5.2704 1.486253,-1.34433 3.575423,-5.97275 3.575423,-7.92112 0,-1.15329 -3.741293,-5.77205 -8.313983,-10.26389 C 54.096202,513.5126 31.6224,484.16343 31.6224,480.10325 c 0,-0.81006 -0.443086,-1.64853 -0.984636,-1.86325 C 28.984683,477.58457 16.915924,451.56795 13.070938,440.3712 1.3760212,406.31515 -1.7305047,371.10944 3.6147937,333.2064 c 1.1617149,-8.23762 1.7538612,-11.04716 4.8134838,-22.8384 1.3500643,-5.2029 5.0220335,-15.58852 7.5162565,-21.2586 0.892907,-2.02983 1.623466,-3.98035 1.623466,-4.33449 0,-1.56637 13.872965,-28.78392 15.31103,-30.03891 0.369065,-0.32208 1.048536,-1.37616 1.509935,-2.3424 1.843166,-3.85988 8.550434,-13.93357 10.137505,-15.2256 0.395629,-0.32208 2.48842,-3.2208 4.650647,-6.4416 3.403845,-5.07028 28.285209,-31.0368 29.739757,-31.0368 0.514332,0 3.760283,-2.62476 9.77657,-7.9056 1.651211,-1.44936 3.352901,-2.6352 3.781534,-2.6352 0.428635,0 1.801035,-0.92652 3.049779,-2.05893 2.36673,-2.14625 7.621323,-5.75201 11.640043,-7.98754 1.28832,-0.71667 4.18704,-2.40656 6.4416,-3.75533 7.07885,-4.23483 20.06594,-10.48355 31.90074,-15.34898 11.81312,-4.85652 37.29357,-11.84122 43.1972,-11.84122 3.29725,0 3.37246,-0.14031 3.37246,-6.29103 0,-3.46006 0.75883,-26.25455 1.68629,-50.654401 0.92747,-24.399853 2.03913,-54.772409 2.47037,-67.494569 l 0.78406,-23.1312 h 28.38794 28.38795 l 0.72279,14.3472 c 0.39753,7.89096 1.61687,39.90864 2.70964,71.1504 1.09277,31.24176 2.37329,57.87691 2.84559,59.18923 0.6888,1.91388 2.65664,2.68812 9.94474,3.91274 4.99731,0.83969 10.19163,1.97153 11.54292,2.51519 1.3513,0.54366 6.14619,2.10479 10.65531,3.46916 4.50912,1.36438 10.30656,3.43816 12.8832,4.60839 2.57664,1.17024 6.0024,2.52261 7.6128,3.00525 3.13699,0.94015 27.91395,13.32312 29.8656,14.92614 0.64416,0.52909 5.52371,3.8509 10.84345,7.3818 5.31973,3.53088 10.64449,7.33768 11.83279,8.45955 1.1883,1.12186 4.42351,3.88439 7.18936,6.13895 5.64001,4.59741 5.79875,4.75077 16.49926,15.94114 4.24338,4.43766 10.44668,11.75774 13.7851,16.26686 3.33841,4.50912 6.4792,8.72544 6.9795,9.3696 4.03652,5.19714 12.68865,19.91684 17.62351,29.98253 14.36665,29.3038 20.99845,55.74019 22.04677,87.88508 1.03452,31.72187 -2.20497,56.266 -10.87122,82.36595 -10.48177,31.56776 -29.97552,62.12707 -55.5142,87.0267 l -7.6049,7.41459 2.7925,4.85205 c 1.53586,2.66864 3.26527,5.40904 3.84311,6.08979 2.24262,2.64197 11.50217,17.44945 11.50217,18.39376 0,0.54865 0.49153,0.99755 1.09227,0.99755 0.60076,0 1.44703,1.11771 1.88061,2.4838 0.43358,1.36609 2.26464,4.66009 4.06903,7.32 8.36123,12.32559 21.06689,32.80317 21.06689,33.95329 0,0.19328 -2.50344,2.12651 -5.5632,4.29606 -3.05976,2.16956 -5.82672,4.2353 -6.1488,4.59054 -0.32208,0.35525 -3.2208,2.45622 -6.4416,4.66882 -20.0163,13.75064 -28.24871,18.41782 -44.928,25.47092 -5.56513,2.3533 -10.64544,4.65639 -11.2896,5.118 -0.64416,0.4616 -2.7708,1.18066 -4.72587,1.5979 -3.33079,0.71083 -3.72392,0.41024 -6.24201,-4.77273 -1.47803,-3.04224 -5.74462,-10.83307 -9.4813,-17.31297 -6.27307,-10.87833 -10.55065,-18.65452 -17.75547,-32.27763 -1.53304,-2.89872 -3.09473,-5.53392 -3.47042,-5.856 -0.37568,-0.32208 -2.11699,-3.64353 -3.86957,-7.381 -1.75257,-3.73747 -3.82121,-7.03895 -4.59696,-7.33664 -0.77576,-0.29768 -5.62245,0.70805 -10.77044,2.23497 -9.30257,2.75918 -9.36217,2.80203 -9.7202,6.98917 -0.19813,2.31712 0.72419,32.68824 2.0496,67.49136 1.32541,34.80312 2.40984,64.56756 2.40984,66.1432 0,2.61493 -0.58735,2.93387 -6.7344,3.6569 -3.70392,0.43565 -11.74128,1.52455 -17.8608,2.41977 -12.08329,1.76764 -31.93355,1.89632 -48.6048,0.31509 z m 32.25221,-180.19555 c 21.17544,-1.75518 54.00151,-10.86151 68.47099,-18.99467 1.28832,-0.72415 4.87811,-2.71777 7.9773,-4.43026 14.11419,-7.79894 30.54767,-21.67294 46.2444,-39.04193 7.10683,-7.86395 24.67251,-34.07015 27.99438,-41.76473 1.5341,-3.55348 3.50267,-8.042 4.37459,-9.97448 3.83827,-8.50693 6.55841,-16.89682 8.3539,-25.7664 0.1304,-0.64416 0.8055,-3.27936 1.50024,-5.856 3.80524,-14.11301 3.889,-44.65855 0.18629,-67.9296 -1.55201,-9.75418 -6.54413,-27.50151 -8.20227,-29.15965 -0.64594,-0.64594 -1.17443,-1.8279 -1.17443,-2.62658 0,-1.50778 -8.8704,-20.34819 -12.77963,-27.14349 -6.30307,-10.95643 -14.17797,-21.21274 -25.25893,-32.8973 -4.52311,-4.7695 -9.03312,-9.53158 -10.02223,-10.58239 -0.98911,-1.05081 -3.88783,-3.46997 -6.4416,-5.37592 -2.55377,-1.90594 -4.90673,-3.79585 -5.22881,-4.19981 -3.35467,-4.2075 -39.62569,-24.45966 -43.80651,-24.45966 -0.81394,0 -1.84109,-0.3612 -2.28255,-0.80267 -0.79511,-0.7951 -6.27715,-2.95754 -13.05654,-5.15026 -7.68434,-2.48543 -25.26636,-5.75531 -37.4784,-6.97021 -36.48826,-3.62998 -80.53901,7.23023 -112.08259,27.63267 -27.787145,17.97279 -51.654441,44.6004 -66.453843,74.13944 -13.930377,27.80447 -19.986277,57.22051 -18.358205,89.17343 1.370849,26.9046 6.145718,45.89941 17.201737,68.4299 5.601039,11.41406 11.803622,22.11349 13.968101,24.0949 0.351838,0.32208 1.476784,1.9032 2.49988,3.5136 5.625758,8.85521 29.02245,32.36881 39.66538,39.86358 2.25343,1.58687 4.36066,3.15023 4.68274,3.47413 4.02859,4.05142 35.18046,20.36178 44.5056,23.30206 2.25456,0.71087 7.52496,2.37655 11.712,3.70149 4.18704,1.32496 13.41024,3.15003 20.496,4.05572 7.08576,0.90569 14.46432,1.85022 16.3968,2.09898 6.60451,0.85013 12.88612,0.76593 26.39621,-0.35389 z"
   id="path1978" /><path
   style="fill:#abe9b3;stroke:none;stroke-width:1.1712"
   d="m 193.34516,728.23982 c -9.28689,-0.94433 -18.17841,-2.20862 -19.75895,-2.80955 l -2.8737,-1.09258 0.77707,-20.17844 c 1.29936,-33.74113 2.97564,-93.21689 2.99807,-106.37392 l 0.0212,-12.40988 -8.6829,-2.52292 c -4.77561,-1.38762 -9.49572,-2.52293 -10.48914,-2.52293 -2.24052,0 -12.12422,17.27041 -39.87342,69.67338 -1.36063,2.56948 -3.38496,4.84723 -4.49852,5.06169 -4.29822,0.82776 -38.340197,-15.1243 -52.868023,-24.77395 -7.787339,-5.1725 -26.095773,-19.12098 -26.983881,-20.55796 -0.543811,-0.87991 25.791298,-43.19837 29.287907,-47.06338 0.920027,-1.01696 1.672777,-2.27551 1.672777,-2.79677 0,-0.52126 2.89872,-5.25958 6.4416,-10.52958 3.54288,-5.27001 6.4416,-10.88322 6.4416,-12.47382 0,-2.02398 -3.376272,-6.56946 -11.249056,-15.1446 C 45.301437,501.67624 36.235505,488.72183 25.823913,467.59198 20.668674,457.12968 14.626066,442.97167 12.395899,436.12978 -1.7971334,392.58717 -1.805002,341.35986 12.375026,300.23974 30.320869,248.19928 64.570979,205.40875 110.12287,178.11805 c 21.04697,-12.6095 50.34092,-24.09734 72.03015,-28.24718 4.92725,-0.94274 9.13083,-1.71407 9.34128,-1.71407 0.85908,0 1.77938,-19.95486 3.51097,-76.128 1.00277,-32.53008 2.1096,-61.91256 2.45965,-65.2944 l 0.63643,-6.1488 h 27.35465 27.35465 l 0.64345,6.1488 c 0.3539,3.38184 1.73996,35.313759 3.08013,70.95982 1.34018,35.64606 2.90936,66.05427 3.48708,67.5738 0.7588,1.99578 2.28441,2.96862 5.49535,3.50426 16.43074,2.74087 37.23534,9.81816 58.69227,19.96583 35.03739,16.57033 66.8969,44.98962 89.8432,80.14189 13.23118,20.26933 25.73479,50.70895 31.03037,75.5424 3.23563,15.1734 4.51628,55.5525 2.353,74.19048 -5.52223,47.57744 -26.74616,90.45451 -63.42482,128.13224 -8.12634,8.34768 -8.99703,9.66197 -7.8369,11.82971 0.71783,1.34127 5.61123,9.04488 10.87422,17.11913 9.19195,14.10189 15.55456,24.10681 27.75726,43.64709 3.11055,4.98093 5.65554,9.54268 5.65554,10.1372 0,1.18703 -17.85888,14.22878 -31.49345,22.99863 -10.3765,6.67425 -41.35354,21.6487 -46.35077,22.40621 -3.44076,0.52157 -3.75024,0.1722 -9.69819,-10.94817 -14.49996,-27.1093 -33.32065,-60.80044 -34.79341,-62.28409 -1.32276,-1.33253 -2.66291,-1.35709 -7.85198,-0.14386 -3.44135,0.80462 -7.96988,2.15957 -10.0634,3.01102 l -3.8064,1.54809 0.0926,15.57815 c 0.051,8.568 1.00873,39.55849 2.1284,68.86777 1.4437,37.79151 1.67223,53.67291 0.78577,54.6076 -0.68751,0.72489 -7.838,2.17561 -15.89,3.2238 -17.86572,2.32572 -46.70273,2.28316 -70.17484,-0.10354 z M 248.96949,549.2526 c 15.34265,-2.27816 39.34426,-8.82945 51.3348,-14.01194 29.23312,-12.635 56.79471,-36.54968 77.20608,-66.99029 14.83716,-22.12748 22.97727,-40.8542 28.4244,-65.39168 1.59453,-7.18286 2.06186,-14.46666 2.02673,-31.58829 -0.0724,-35.27382 -4.30408,-53.64 -19.28803,-83.7135 -9.35715,-18.78023 -19.19451,-32.20159 -36.12275,-49.28318 -17.25322,-17.40952 -39.98446,-31.6366 -67.25078,-42.09108 -18.16325,-6.96417 -45.9335,-11.16676 -67.45674,-10.20852 -32.83731,1.46198 -66.08398,12.02088 -92.29056,29.31083 -41.604854,27.44905 -70.958091,70.65223 -80.699519,118.77654 -2.582579,12.75839 -2.949741,53.69419 -0.596352,66.48891 4.152805,22.57762 15.702091,50.62185 28.551674,69.32982 8.56548,12.47064 29.635857,33.98535 43.552677,44.47113 14.44146,10.88106 44.33389,25.77655 60.49008,30.1424 22.84171,6.17247 50.36627,7.98872 72.11829,4.75885 z"
   id="path2017" /><path
   style="fill:#abe9b3;stroke:none;stroke-width:1.1712"
   d="m 193.248,727.8056 c -5.47536,-0.58622 -12.50269,-1.59906 -15.61628,-2.25075 -3.1136,-0.6517 -6.23364,-0.83105 -6.93343,-0.39855 -0.85163,0.52633 -0.9708,0.0451 -0.36038,-1.45538 1.33578,-3.28349 4.26291,-91.07669 3.89805,-116.91358 l -0.31276,-22.14706 -7.6128,-2.15076 c -11.20878,-3.16671 -12.12443,-2.97383 -16.15632,3.40328 -4.26725,6.74938 -16.68639,29.09436 -28.38773,51.07628 -4.75263,8.9282 -9.41454,16.52987 -10.35981,16.8926 -2.49297,0.95665 -11.525674,-2.44435 -28.83694,-10.85771 -16.014837,-7.78329 -29.839852,-16.49988 -43.084501,-27.1645 l -7.948501,-6.40015 2.591095,-4.30687 c 2.570386,-4.27243 13.975591,-22.47703 31.64177,-50.50554 5.625514,-8.92522 9.187337,-15.8073 9.187337,-17.75156 0,-2.30261 -2.565652,-6.08237 -9.33545,-13.7531 C 43.575153,498.14212 35.453729,486.32258 24.317578,463.01065 9.2226067,431.4115 2.3424,401.25503 2.3424,366.69175 c 0,-75.28711 41.513081,-147.4048 108.336,-188.20436 18.31311,-11.18131 53.08457,-24.76249 71.84361,-28.06102 6.92976,-1.2185 8.78351,-1.99775 9.55032,-4.01462 0.52332,-1.37646 1.83145,-28.55771 2.90693,-60.402795 C 196.05473,54.16387 197.29102,22.04784 197.72654,14.64 L 198.5184,1.1712 225.1915,0.85633893 c 20.71938,-0.244581 26.7908,0.016843 27.20046,1.17119997 0.29005,0.8173337 1.59263,27.0475011 2.89462,58.2892611 3.16376,75.91561 3.65486,84.02398 5.21856,86.16248 0.74147,1.01402 6.54024,3.06395 13.00989,4.59914 29.98539,7.11524 60.63426,21.22191 84.87217,39.06391 10.93077,8.04635 31.90221,28.34819 41.31771,39.99847 18.59683,23.01084 33.13888,51.7819 41.84632,82.79186 4.81583,17.1507 6.15388,32.64003 5.59845,64.8083 -0.43062,24.94115 -0.77743,28.79932 -3.73477,41.54864 -9.02456,38.90576 -28.16751,73.62853 -57.98899,105.18439 -4.37751,4.63211 -8.52185,9.49679 -9.20964,10.81041 -1.07891,2.06061 1.71049,7.03694 20.32467,36.25953 11.86636,18.62911 21.89592,34.88165 22.28792,36.11672 0.85811,2.70364 -0.90032,4.24126 -19.44967,17.00729 -12.46684,8.57994 -42.69709,24.76122 -53.04872,28.39528 -3.01764,1.05938 -5.03017,1.1903 -6.2705,0.40793 -1.00461,-0.63371 -5.00085,-6.94075 -8.88052,-14.01566 -19.8622,-36.22049 -30.5992,-55.22979 -32.23831,-57.07629 -2.36412,-2.66325 -5.33377,-2.58451 -14.98811,0.39741 l -7.92249,2.44701 0.79386,38.25219 c 0.43662,21.0387 1.27492,51.50938 1.86286,67.71263 0.58796,16.20323 0.7926,30.51738 0.45478,31.80922 -0.47191,1.80459 -2.28507,2.68293 -7.82534,3.7908 -8.91991,1.78368 -64.18402,2.50371 -78.06871,1.01714 z m 69.51429,-180.7304 c 19.50521,-4.58 31.95963,-8.64466 43.50651,-14.19893 45.91929,-22.08804 86.54461,-73.47711 99.05412,-125.29867 4.85209,-20.10013 3.98153,-60.304 -1.79925,-83.09253 -5.49589,-21.66545 -18.68904,-48.22462 -33.28407,-67.00425 -48.89712,-62.91668 -131.09732,-87.59281 -205.50733,-61.69238 -27.0417,9.41259 -47.28266,22.27578 -68.757836,43.69577 -21.71036,21.65459 -36.43828,45.0697 -45.658314,72.58965 -6.779121,20.23434 -7.395949,25.01254 -7.415001,57.43974 -0.0168,28.58814 0.113829,30.35159 3.053833,41.22735 5.471355,20.23983 15.341212,42.51114 26.210706,59.14442 6.536328,10.00235 37.918962,41.02288 48.922062,48.35757 20.82075,13.87917 49.50147,26.10518 69.81788,29.76195 15.30512,2.75479 16.75522,2.84625 38.6496,2.43757 16.93378,-0.31608 22.70519,-0.90131 33.20709,-3.36726 z"
   id="path2093" /></svg>
